<svg width="147" height="90" viewBox="0 0 147 90" fill="none" xmlns="http://www.w3.org/2000/svg">
<path d="M140.199 84.3561C140.199 84.3561 150.944 98.8899 143.635 106.619C136.325 114.348 127.962 98.2225 127.962 98.2225L122.013 89.1435L130.502 72.0776C133.97 75.9816 137.207 80.0813 140.199 84.3561Z" fill="#EFEFEF"/>
<path d="M103.122 23.1893C103.122 23.1893 130.082 2.20295 139.431 13.7706C150.177 27.0447 115.244 41.7597 115.244 41.7597L103.122 23.1893Z" fill="#FFCACA"/>
<path d="M131.371 16.3713C133.697 16.3747 134.411 17.1903 134.684 17.5829C134.98 17.8498 135.195 18.1925 135.307 18.5732C135.419 18.9539 135.424 19.3578 135.319 19.7407C134.616 22.5452 128.524 28.6751 117.493 34.1491L111.424 24.7885C117.588 20.7251 125.988 16.3633 131.416 16.3714L131.371 16.3713ZM131.425 10.338C119.763 10.3208 103.17 23.2378 103.17 23.2378L115.307 41.8082C115.307 41.8082 150.301 27.0933 139.494 13.8191C138.518 12.6568 137.281 11.7368 135.883 11.1324C134.485 10.5281 132.964 10.2561 131.441 10.3381L131.425 10.338Z" fill="black"/>
<path d="M112.606 16.7662C115.348 12.8858 117.448 8.59667 118.829 4.0602C119.015 3.47757 119.018 2.85262 118.838 2.26811C118.658 1.68359 118.303 1.16708 117.821 0.786971C117.338 0.406865 116.751 0.181099 116.136 0.139547C115.521 0.0979955 114.909 0.24262 114.379 0.554287C109.632 3.23382 105.274 6.54083 101.424 10.3846C94.6168 17.6899 112.606 16.7662 112.606 16.7662Z" fill="#FFC145"/>
<path d="M106.628 132.917C102.257 134.019 97.8159 134.829 93.3352 135.341C86.4829 136.154 79.5857 136.537 72.6847 136.487C66.6878 136.504 60.6941 136.208 54.7286 135.601C10.3054 131.01 11.8425 109.519 11.8425 109.519C11.8425 109.519 11.8702 90.77 12.3688 82.6408C13.151 68.03 15.2074 53.5139 18.515 39.2552C20.299 32.1178 23.9504 25.574 29.1003 20.2848C34.2502 14.9956 40.7162 11.1484 47.845 9.13193C58.2137 6.19045 69.0294 5.11326 79.7808 5.95128C85.8167 6.41659 91.7904 7.4815 97.612 9.13004L97.764 9.13026C104.885 11.1441 111.345 14.9868 116.49 20.27C121.635 25.5532 125.283 32.0899 127.066 39.2195C128.237 44.625 129.112 50.0894 129.687 55.5888C132.001 74.205 133.803 100.257 133.789 109.759C133.789 109.714 134.769 125.628 106.628 132.917Z" fill="white"/>
<path d="M93.333 135.352C86.4807 136.165 79.5835 136.547 72.6825 136.498C66.6856 136.515 60.6919 136.219 54.7263 135.611C10.3032 131.021 11.8403 109.529 11.8403 109.529C11.8403 109.529 11.868 90.7808 12.3665 82.6516C12.3665 82.6516 45.6872 78.7641 52.5237 103.27C53.0839 105.385 53.9299 107.416 55.0389 109.307C64.2153 124.72 85.8706 112.444 93.1818 134.808C93.247 134.985 93.2975 135.167 93.333 135.352Z" fill="black"/>
<path d="M129.681 55.5851C115.808 49.0486 117.008 29.0951 99.8568 29.0698C79.3752 29.0395 79.7286 6.00781 79.7286 6.00781C85.7645 6.47312 91.7381 7.53805 97.5597 9.18659L97.7118 9.18681C104.833 11.2007 111.293 15.0433 116.438 20.3266C121.583 25.6098 125.231 32.1464 127.014 39.2761C128.198 44.6608 129.088 50.1051 129.681 55.5851Z" fill="black"/>
<path d="M109.054 55.8878C112.782 55.8933 115.809 52.8995 115.815 49.2008C115.82 45.5022 112.802 42.4994 109.074 42.4939C105.345 42.4884 102.318 45.4822 102.313 49.1809C102.307 52.8795 105.325 55.8823 109.054 55.8878Z" fill="black"/>
<path d="M54.8437 55.8073C58.5722 55.8128 61.5992 52.8189 61.6047 49.1202C61.6102 45.4216 58.592 42.4188 54.8635 42.4133C51.1349 42.4078 48.1079 45.4017 48.1024 49.1003C48.0969 52.7989 51.1151 55.8017 54.8437 55.8073Z" fill="black"/>
<path d="M104.52 66.7236C104.532 58.6238 97.4911 49.1713 81.9209 49.1483C66.3506 49.1253 59.5551 58.5574 59.5432 66.6571C59.5312 74.7568 66.3225 78.4472 81.8775 78.4702C97.4325 78.4931 104.508 74.8082 104.52 66.7236Z" fill="#FFCACA"/>
<path d="M77.4202 66.1698C78.705 66.1717 79.7487 64.7753 79.7512 63.051C79.7538 61.3266 78.7143 59.9272 77.4294 59.9253C76.1446 59.9234 75.101 61.3197 75.0984 63.0441C75.0959 64.7685 76.1354 66.1679 77.4202 66.1698Z" fill="black"/>
<path d="M90.9724 66.1923C92.2573 66.1941 93.3009 64.7978 93.3035 63.0734C93.306 61.3491 92.2665 59.9497 90.9817 59.9478C89.6968 59.9459 88.6532 61.3422 88.6507 63.0666C88.6481 64.7909 89.6876 66.1904 90.9724 66.1923Z" fill="black"/>
<path d="M34.9363 18.8678C31.5317 14.3195 28.8519 9.27927 26.9908 3.92356C26.8065 3.34038 26.805 2.71542 26.9867 2.13144C27.1684 1.54746 27.5247 1.032 28.0082 0.653318C28.4918 0.274638 29.08 0.0506097 29.6948 0.0108743C30.3096 -0.0288612 30.922 0.117574 31.4511 0.430806C35.4618 2.80481 38.7286 4.37831 42.4176 8.35067C49.2035 15.6912 34.9363 18.8678 34.9363 18.8678Z" fill="#FFC145"/>
<path d="M36.1799 28.3993C37.0103 27.3708 37.624 26.1873 37.9843 24.9189C38.3447 23.6506 38.4444 22.3234 38.2775 21.0161C38.1107 19.7088 37.6807 18.448 37.0131 17.3088C36.3454 16.1695 35.4538 15.175 34.3912 14.3842C26.2348 8.33886 13.7467 1.17092 7.03114 7.91833C-1.07018 16.0966 11.3821 26.9901 20.3744 33.2177C22.4409 34.6529 24.9805 35.2541 27.4775 34.8992C29.9746 34.5443 32.2418 33.2599 33.8188 31.3069L36.1799 28.3993Z" fill="#FFCACA"/>
<path d="M14.0232 11.2167C17.8245 11.2223 23.9175 14.1424 30.7372 19.2054C31.1485 19.5108 31.4933 19.8954 31.751 20.3362C32.0088 20.777 32.1742 21.2649 32.2374 21.7706C32.3005 22.2763 32.2601 22.7895 32.1185 23.2793C31.9769 23.7691 31.7371 24.2256 31.4135 24.6213L29.0828 27.5289C28.7186 27.9811 28.2552 28.3449 27.7278 28.5924C27.2004 28.84 26.623 28.9648 26.0396 28.9574C25.2564 28.961 24.4915 28.7226 23.851 28.2754C14.3574 21.7001 10.7308 16.6267 10.4914 14.0471C10.4919 13.6701 10.4015 13.1118 11.3609 12.1479C11.6994 11.8089 12.11 11.5492 12.5628 11.3881C13.0156 11.2269 13.499 11.1683 13.9776 11.2166L14.0232 11.2167ZM13.9865 5.18331C12.6976 5.13698 11.413 5.35608 10.2137 5.82679C9.0144 6.29749 7.92644 7.0096 7.01842 7.91819C-1.08289 16.0965 11.3694 26.9899 20.3617 33.2175C22.4294 34.6492 24.968 35.2483 27.464 34.8935C29.96 34.5388 32.2269 33.2567 33.806 31.3067L36.1368 28.3991C36.9672 27.3706 37.5808 26.1871 37.9412 24.9187C38.3015 23.6504 38.4013 22.3232 38.2344 21.0159C38.0675 19.7086 37.6375 18.4478 36.9699 17.3086C36.3023 16.1693 35.4107 15.1748 34.348 14.384C28.546 10.0616 20.54 5.19299 13.9865 5.18331Z" fill="white"/>
<path d="M4.74886 83.3605C4.74886 83.3605 -4.77705 98.6409 3.19512 105.832C11.1673 113.024 18.141 96.1709 18.141 96.1709L26.0225 82.3814L13.4808 70.2962C10.317 74.4792 7.40143 78.8413 4.74886 83.3605Z" fill="white"/>
<path d="M45.9377 55.7935L42.7598 55.7888C39.0145 55.7833 35.9738 58.7873 35.9683 62.4984C35.9629 66.2095 38.9946 69.2225 42.74 69.228L45.9179 69.2327C49.6632 69.2383 52.7039 66.2343 52.7094 62.5231C52.7149 58.812 49.6831 55.7991 45.9377 55.7935Z" fill="#FFD2D2"/>
<path d="M121.003 55.9039L117.826 55.8992C114.08 55.8936 111.04 58.8976 111.034 62.6088C111.029 66.3199 114.06 69.3328 117.806 69.3384L120.984 69.3431C124.729 69.3486 127.77 66.3446 127.775 62.6335C127.781 58.9224 124.749 55.9094 121.003 55.9039Z" fill="#FFD2D2"/>
</svg>
