<svg width="67" height="56" viewBox="0 0 67 56" fill="none" xmlns="http://www.w3.org/2000/svg">
<path d="M61.789 48.566C61.789 48.566 67.5645 43.3282 65.2822 39.2781C63 35.228 58.055 41.385 58.055 41.385L54.755 44.7294L56.6492 52.9292C58.4417 51.5794 60.1579 50.1226 61.789 48.566Z" fill="#EFD565"/>
<path d="M22.5743 8.55637C29.735 6.50902 37.328 6.50301 44.4919 8.53904L44.559 8.53898C47.7011 9.42421 50.5532 11.1205 52.8271 13.4564C55.1011 15.7923 56.7163 18.6851 57.5095 21.8425C59.0161 27.8566 60.5468 47.2914 60.5513 53.046C60.5513 53.046 61.3117 64.9557 33.6348 64.9775C5.9579 64.9994 6.80668 53.0885 6.80668 53.0885C6.80668 53.0885 6.80007 44.7808 7.01177 41.1781C7.3457 34.7034 8.23788 28.2694 9.67844 21.9472C10.4554 18.7816 12.058 15.8769 14.3239 13.5277C16.5898 11.1784 19.4384 9.46795 22.5811 8.56973L22.5743 8.55637Z" fill="#F2F2F2"/>
<path d="M22.5743 8.55637C29.735 6.50902 37.328 6.50301 44.4919 8.53904L44.559 8.53898C47.7011 9.42421 50.5532 11.1205 52.8271 13.4564C55.1011 15.7923 56.7163 18.6851 57.5095 21.8425C59.0161 27.8566 60.5468 47.2914 60.5513 53.046C60.5513 53.046 61.3117 64.9557 33.6348 64.9775C5.9579 64.9994 6.80668 53.0885 6.80668 53.0885C6.80668 53.0885 6.80007 44.7808 7.01177 41.1781C7.3457 34.7034 8.23788 28.2694 9.67844 21.9472C10.4554 18.7816 12.058 15.8769 14.3239 13.5277C16.5898 11.1784 19.4384 9.46795 22.5811 8.56973L22.5743 8.55637Z" fill="#FFE36C"/>
<path d="M49.5892 29.2086C51.2333 29.2073 52.5651 27.8776 52.5638 26.2387C52.5625 24.5998 51.2286 23.2722 49.5845 23.2735C47.9405 23.2748 46.6087 24.6045 46.61 26.2434C46.6113 27.8823 47.9452 29.2099 49.5892 29.2086Z" fill="black"/>
<path d="M25.6866 29.2281C27.3307 29.2268 28.6625 27.8972 28.6612 26.2582C28.6599 24.6193 27.326 23.2918 25.682 23.2931C24.0379 23.2944 22.7061 24.624 22.7074 26.2629C22.7087 27.9019 24.0426 29.2294 25.6866 29.2281Z" fill="black"/>
<path d="M5.03198 48.1354C5.03198 48.1354 -0.905486 42.941 1.27464 38.887C3.45476 34.8329 8.59055 40.9662 8.59055 40.9662L11.9862 44.2935L10.3045 52.4759C8.46982 51.1339 6.70935 49.6847 5.03198 48.1354Z" fill="#FFE36C"/>
<path d="M40.6245 59.6723C40.5362 59.6729 40.4488 59.6561 40.367 59.6229C40.2853 59.5897 40.211 59.5407 40.1483 59.4789L37.1623 56.4736C37.0524 56.3458 36.9949 56.1814 37.0013 56.0132C37.0076 55.845 37.0774 55.6853 37.1968 55.5662C37.3161 55.4471 37.4761 55.3772 37.6448 55.3706C37.8136 55.364 37.9786 55.4211 38.107 55.5304L41.0996 58.5023C41.1624 58.5644 41.2124 58.6383 41.2465 58.7197C41.2806 58.8011 41.2982 58.8884 41.2983 58.9767C41.2984 59.0649 41.2809 59.1523 41.2469 59.2338C41.213 59.3152 41.1631 59.3892 41.1003 59.4514C41.04 59.5182 40.9667 59.5722 40.885 59.6102C40.8032 59.6482 40.7146 59.6693 40.6245 59.6723Z" fill="#FFBB4D"/>
<path d="M37.6412 59.6766C37.508 59.6775 37.3776 59.6388 37.2665 59.5655C37.1555 59.4922 37.0689 59.3876 37.0177 59.265C36.9665 59.1425 36.9532 59.0075 36.9793 58.8773C37.0054 58.7471 37.0697 58.6276 37.1642 58.5341L40.1454 55.5575C40.2077 55.4948 40.2818 55.445 40.3635 55.411C40.4452 55.377 40.5328 55.3595 40.6213 55.3594C40.7098 55.3593 40.7975 55.3767 40.8792 55.4106C40.9609 55.4445 41.0351 55.4941 41.0975 55.5567C41.2225 55.6819 41.2927 55.8512 41.2929 56.0278C41.293 56.2043 41.223 56.3738 41.0982 56.4991L38.1103 59.4824C37.9855 59.606 37.817 59.6757 37.6412 59.6766Z" fill="#FFBB4D"/>
<path d="M21.5698 39.2013C24.1174 39.1993 26.181 37.1389 26.179 34.5993C26.177 32.0597 24.1101 30.0026 21.5625 30.0047C19.0149 30.0067 16.9513 32.067 16.9533 34.6066C16.9553 37.1462 19.0222 39.2033 21.5698 39.2013Z" fill="#FFA052"/>
<path d="M53.5205 39.1759C56.0681 39.1739 58.1317 37.1135 58.1297 34.574C58.1277 32.0344 56.0608 29.9772 53.5132 29.9793C50.9656 29.9813 48.902 32.0417 48.904 34.5812C48.906 37.1208 50.9729 39.178 53.5205 39.1759Z" fill="#FFA052"/>
<path d="M42.1191 34.5131L34.7439 34.519C33.7339 34.5162 32.766 34.115 32.0518 33.4029C31.3376 32.6908 30.9352 31.7259 30.9327 30.719C30.931 28.6337 36.3339 27.2325 38.4325 27.2309C40.5243 27.2292 45.9294 28.6218 45.931 30.7071C45.9301 31.7152 45.5284 32.6818 44.8139 33.3952C44.0994 34.1086 43.1303 34.5106 42.1191 34.5131Z" fill="#FFBB4D"/>
<path d="M32.6852 7.02108C32.6852 7.02108 32.9636 2.87032 35.5427 0.148045C35.6041 0.0841079 35.6825 0.0388626 35.7687 0.017561C35.8549 -0.00374067 35.9454 -0.000224616 36.0297 0.027706C36.114 0.0556366 36.1886 0.106829 36.2448 0.175342C36.3011 0.243855 36.3367 0.326872 36.3475 0.41475C36.6229 2.36103 37.225 4.2472 38.1286 5.99418C38.4064 6.42537 38.7733 6.79251 39.2048 7.07109C39.6363 7.34967 40.1224 7.53327 40.6308 7.60964" fill="#FFE36C"/>
<path d="M37.418 7.1958C35.3776 5.75336 33.6726 3.89009 32.4186 1.73254C32.3761 1.65368 32.3117 1.58866 32.2331 1.5452C32.1546 1.50174 32.0652 1.48167 31.9755 1.48737C31.8858 1.49307 31.7997 1.52431 31.7273 1.57737C31.655 1.63042 31.5994 1.70307 31.5672 1.78668C31.2513 2.87383 31.0786 3.99734 31.0536 5.12891C31.0228 5.66577 30.8054 6.17515 30.4386 6.56945C30.0718 6.96374 29.5786 7.21829 29.0439 7.28931" fill="#FFE36C"/>
</svg>
