<svg width="52" height="41" viewBox="0 0 52 41" fill="none" xmlns="http://www.w3.org/2000/svg">
<path d="M5.7191 25.1381C5.7191 25.1381 -0.644859 47.5821 27.7064 45.9103C51.8017 44.4852 45.3082 25.1331 45.3082 25.1331C47.2119 23.3051 48.403 20.7218 48.403 17.8565C48.403 14.0093 46.26 10.6656 43.1105 8.98365L43.1005 8.96854C43.26 8.36929 43.3596 7.75494 43.3596 7.10534C43.3596 3.18255 40.215 0 36.3279 0C33.4873 0 31.0454 1.70206 29.939 4.1494H29.5752H22.8823H22.6481C21.5368 1.70206 19.0998 0 16.2642 0C12.3821 0 9.23248 3.18255 9.23248 7.10534C9.23248 7.53337 9.28231 7.95637 9.35707 8.36426H9.34212C5.43504 9.71382 2.62931 13.4553 2.62931 17.8565C2.62931 20.7218 3.8154 23.3051 5.7191 25.1381Z" fill="#49B236"/>
<path d="M36.4057 12.4949C35.1066 12.4949 34.0535 11.4307 34.0535 10.118C34.0535 8.80535 35.1066 7.74121 36.4057 7.74121C37.7048 7.74121 38.7579 8.80535 38.7579 10.118C38.7579 11.4307 37.7048 12.4949 36.4057 12.4949Z" fill="black"/>
<path d="M17.5314 12.4949C16.2323 12.4949 15.1792 11.4307 15.1792 10.118C15.1792 8.80535 16.2323 7.74121 17.5314 7.74121C18.8305 7.74121 19.8837 8.80535 19.8837 10.118C19.8837 11.4307 18.8305 12.4949 17.5314 12.4949Z" fill="black"/>
<path d="M5.09451 23.8156C5.09451 23.8156 0.0568056 27.2588 1.35034 30.7512C2.64388 34.2436 7.16307 29.9312 7.16307 29.9312L10.0826 27.673L9.55521 20.9544C9.55365 20.9475 6.41949 22.7263 5.09451 23.8156Z" fill="#49B236"/>
<path d="M46.9052 30.8226C46.9052 30.8226 51.943 27.3794 50.6494 23.887C49.3559 20.3946 44.8367 24.707 44.8367 24.707L41.9171 26.9652L42.4445 33.6838C42.4461 33.6907 45.5803 31.9119 46.9052 30.8226Z" fill="#49B236"/>
<path fill-rule="evenodd" clip-rule="evenodd" d="M38.8321 43.204V32.6083C38.8371 29.4257 36.2606 26.8223 33.1111 26.8223L20.9463 26.8223C17.7967 26.8223 15.2252 29.4257 15.2252 32.6032V44.6285C18.3663 45.6959 22.4512 46.2252 27.7476 45.9128C32.5675 45.6278 36.1634 44.6254 38.8321 43.204Z" fill="#9CD43D"/>
<path d="M42.1411 20.4535C39.8484 20.4535 37.9898 18.6724 37.9898 16.4753C37.9898 14.2782 39.8484 12.4971 42.1411 12.4971C44.4338 12.4971 46.2924 14.2782 46.2924 16.4753C46.2924 18.6724 44.4338 20.4535 42.1411 20.4535Z" fill="#9CD43D"/>
<path d="M12.9514 20.4535C10.6587 20.4535 8.80012 18.6724 8.80012 16.4753C8.80012 14.2782 10.6587 12.4971 12.9514 12.4971C15.2441 12.4971 17.1027 14.2782 17.1027 16.4753C17.1027 18.6724 15.2441 20.4535 12.9514 20.4535Z" fill="#9CD43D"/>
<path d="M26.9639 38.75L29.326 41.1369" stroke="#49B236" stroke-width="2.36202" stroke-miterlimit="10" stroke-linecap="round"/>
<path d="M29.326 38.75L26.9639 41.1369" stroke="#49B236" stroke-width="2.36202" stroke-miterlimit="10" stroke-linecap="round"/>
<path d="M25.2545 15.0247C25.2545 16.6679 26.3738 18 27.7545 18C29.1352 18 30.2545 16.6679 30.2545 15.0247C30.2545 13.3816 29.1352 14.2076 27.7545 14.2076C26.3738 14.2076 25.2545 13.3816 25.2545 15.0247Z" fill="white"/>
</svg>
