<svg width="69" height="70" viewBox="0 0 69 70" fill="none" xmlns="http://www.w3.org/2000/svg">
<path d="M20.7794 35.0012L20.7794 25.0784L-3.10931e-07 45.8931L4.90921 50.9127L20.7794 35.0012ZM68.1285 28.7995C66.5889 21.0085 60.7695 15.1943 60.1014 14.5451L45.8192 -2.20075e-07L37.6566 8.17858L37.0756 8.76L37.0756 18.6828L45.7805 9.97129L53.9044 18.2371L55.1438 19.4968L55.2309 19.584C55.2503 19.6034 55.7732 20.117 56.5188 21.0085C58.0486 22.84 60.479 26.2509 61.2537 30.1658C62.4156 36.0187 62.9966 42.831 56.5188 51.1452L56.5188 61.3975C57.1288 60.8646 57.5161 60.4867 57.6517 60.351C63.442 54.6531 66.9375 48.8971 68.3221 42.7438C69.5325 37.4044 68.9031 32.695 68.1285 28.7995ZM24.8752 59.4207L24.6525 59.3141L24.546 59.2851C24.3911 59.2075 23.8101 58.9071 22.745 58.1319C22.2124 57.7443 21.5637 57.2501 20.7891 56.6009C19.6078 55.6221 18.136 54.3043 16.3446 52.56L12.3262 48.4513L7.36863 53.4128L11.358 57.4924L11.4161 57.5505C17.5937 63.5972 20.7794 65.3221 21.9413 65.8066C26.1824 67.8416 30.1621 68.8106 33.7931 69.0819C35.8072 69.237 37.705 69.1788 39.4866 68.9753C39.6416 68.9559 39.7868 68.9366 39.9417 68.9172L39.9417 61.8045C35.691 62.5313 30.5784 62.1921 24.8752 59.4207Z" fill="white"/>
<path d="M33.5635 12.2657L33.5635 54.6219L24.2776 54.6219L24.2776 21.5684L25.2169 20.6284L25.7107 20.1342L28.5188 17.3241L30.4166 15.4151L31.0363 14.7949L32.9438 12.8956L33.5635 12.2657Z" fill="white"/>
<path d="M53.0174 21.7445L53.0174 64.0135C52.9786 64.0425 52.9399 64.0716 52.8915 64.091C52.4655 64.3623 52.0104 64.6433 51.5359 64.9243C51.381 65.0115 51.2164 65.1084 51.0518 65.1957C50.616 65.4379 50.1706 65.6705 49.7059 65.903C49.2701 66.1162 48.8247 66.3294 48.3599 66.5329C48.1082 66.6395 47.8564 66.7558 47.595 66.8624C47.2561 66.998 46.9075 67.1337 46.5492 67.2694C46.2684 67.376 45.9876 67.4729 45.6971 67.5698C45.1258 67.7636 44.5255 67.9477 43.8961 68.1124C43.7509 68.1512 43.596 68.1899 43.441 68.2287L43.441 21.7445L53.0174 21.7445Z" fill="white"/>
<path d="M43.4323 32.8993L33.5655 32.8993L33.5655 42.4927L43.4323 42.4926L43.4323 32.8993Z" fill="white"/>
</svg>
