<svg width="133" height="94" viewBox="0 0 133 94" fill="none" xmlns="http://www.w3.org/2000/svg">
<path d="M127.725 91.3307C127.725 91.3307 136.321 105.079 129.291 111.514C122.262 117.949 115.894 102.935 115.894 102.935L111.191 94.3972L119.898 79.6737C122.73 83.4057 125.343 87.2978 127.725 91.3307Z" fill="#EFEFEF"/>
<path d="M45.5438 28.6997C60.0592 24.5623 75.4457 24.5664 89.9588 28.7118L90.081 28.7119C96.4465 30.5103 102.223 33.9556 106.825 38.6989C111.427 43.4422 114.692 49.315 116.288 55.7225C119.341 67.9238 122.386 107.345 122.383 119.017C122.383 119.017 123.898 143.174 67.8289 143.159C11.7601 143.144 13.5052 118.988 13.5052 118.988C13.5052 118.988 13.5098 102.137 13.96 94.8309C14.643 81.6987 16.4644 68.6502 19.4036 55.8317C20.9896 49.4152 24.2443 43.53 28.8388 38.7708C33.4334 34.0116 39.2052 30.5469 45.571 28.7269L45.5438 28.6997Z" fill="white"/>
<path d="M46.8088 73.3402L40.7102 73.3386C37.3646 73.3377 34.6517 76.0438 34.6508 79.3829L34.6508 79.3964C34.6498 82.7355 37.3613 85.4431 40.7069 85.4441L46.8055 85.4457C50.1511 85.4466 52.864 82.7405 52.8649 79.4014L52.8649 79.3878C52.8659 76.0487 50.1544 73.3411 46.8088 73.3402Z" fill="#FFD2D2"/>
<path d="M111.028 73.3593L104.929 73.3576C101.584 73.3567 98.8709 76.0628 98.87 79.4019L98.87 79.4155C98.8691 82.7546 101.581 85.4622 104.926 85.4631L111.025 85.4648C114.37 85.4657 117.083 82.7595 117.084 79.4204L117.084 79.4069C117.085 76.0678 114.374 73.3602 111.028 73.3593Z" fill="#FFD2D2"/>
<path d="M100.23 70.6458C103.561 70.6467 106.261 67.9527 106.262 64.6286C106.263 61.3045 103.564 58.609 100.233 58.6081C96.9027 58.6072 94.202 61.3012 94.2011 64.6253C94.2002 67.9494 96.8994 70.6449 100.23 70.6458Z" fill="black"/>
<path d="M51.8062 70.6341C55.1369 70.635 57.8376 67.941 57.8385 64.6169C57.8394 61.2927 55.1402 58.5973 51.8095 58.5964C48.4789 58.5955 45.7781 61.2895 45.7772 64.6136C45.7763 67.9377 48.4756 70.6332 51.8062 70.6341Z" fill="black"/>
<path d="M55.9474 30.5204C56.8866 30.2708 57.6933 29.6695 58.1995 28.8414C58.7057 28.0134 58.8725 27.0224 58.6651 26.0747C57.0237 18.5914 52.2879 2.10599 42.8205 3.45901C31.6416 5.05558 37.382 23.4933 40.2051 30.977C40.5516 31.8255 41.187 32.5247 41.9994 32.9515C42.8118 33.3782 43.7491 33.5051 44.646 33.3098L55.9474 30.5204Z" fill="#FFD2D2"/>
<path d="M43.8462 36.7912C42.3773 36.7936 40.9422 36.3517 39.7301 35.5237C38.5179 34.6957 37.5857 33.5206 37.0561 32.1532C33.7987 23.5036 30.7458 11.8175 34.7409 5.04057C35.546 3.68756 36.6545 2.53926 37.9792 1.68581C39.3039 0.83237 40.8087 0.297029 42.3756 0.121832C51.1775 -1.15004 58.1565 7.82593 62.0092 25.3549C62.4174 27.173 62.0934 29.0785 61.1072 30.6605C60.121 32.2425 58.5514 33.3745 56.7368 33.8124L45.4897 36.6018C44.9513 36.7294 44.3996 36.7929 43.8462 36.7912ZM43.8543 6.77821C43.6689 6.76472 43.4829 6.76467 43.2975 6.77806C42.7446 6.81459 42.2088 6.98399 41.7357 7.27184C41.2626 7.55968 40.8663 7.95742 40.5805 8.43115C38.6237 11.7383 39.7081 19.8993 43.4135 29.7284C43.4624 29.8026 43.5288 29.8637 43.607 29.9063C43.6851 29.9488 43.7726 29.9716 43.8616 29.9725L55.0952 27.183C55.189 27.1604 55.2707 27.103 55.3237 27.0224C55.3767 26.9419 55.397 26.8443 55.3805 26.7493C53.3456 17.4629 49.1244 6.77964 43.9087 6.77823L43.8543 6.77821Z" fill="white"/>
<path d="M81.5738 31.3292C80.6311 31.0852 79.8205 30.4846 79.3137 29.6545C78.8069 28.8245 78.6436 27.8302 78.8585 26.8821C80.504 19.3997 85.2352 2.93041 94.7155 4.27503C105.88 5.87767 100.143 24.3123 97.3159 31.7944C96.99 32.6585 96.3577 33.3731 95.5388 33.8027C94.72 34.2323 93.7716 34.3469 92.8737 34.1248L81.5738 31.3292Z" fill="#FFD2D2"/>
<path d="M93.7353 37.6184C93.149 37.6188 92.5649 37.5458 91.9968 37.401L80.7648 34.6055C78.9479 34.1695 77.3757 33.038 76.3876 31.4551C75.3995 29.8722 75.0747 27.9649 75.4835 26.1451C79.3593 8.61821 86.3567 -0.340398 95.1443 0.922699C96.7099 1.09668 98.2135 1.63212 99.5358 2.48659C100.858 3.34106 101.963 4.49109 102.763 5.84561C106.768 12.6247 103.709 24.3227 100.446 32.957C99.9351 34.3227 99.019 35.5005 97.82 36.3333C96.621 37.1661 95.1961 37.6144 93.7353 37.6184ZM93.6212 7.59185C88.392 7.59043 84.1785 18.2307 82.1114 27.6109C82.0948 27.7023 82.1136 27.7965 82.164 27.8746C82.2144 27.9526 82.2927 28.0086 82.3829 28.0312L93.6285 30.8268C93.7185 30.8497 93.8138 30.8389 93.8964 30.7965C93.979 30.754 94.0431 30.6829 94.0768 30.5965C97.7875 20.7558 98.8628 12.5954 96.9078 9.3008C96.6274 8.82126 96.2328 8.41813 95.7591 8.12716C95.2853 7.83618 94.747 7.66635 94.1917 7.63268C94.0029 7.60421 93.8122 7.59057 93.6212 7.59185Z" fill="white"/>
<path d="M8.1033 88.6507C8.1033 88.6507 -2.86826 100.58 2.86477 108.217C8.59779 115.854 17.619 102.229 17.619 102.229L23.7917 94.688L17.9241 78.6066C14.4585 81.7621 11.1794 85.1158 8.1033 88.6507Z" fill="white"/>
<path d="M78.3891 72.4417L71.4901 68.9831C71.3305 68.902 71.1885 68.7904 71.0721 68.6546C70.9557 68.5187 70.8672 68.3614 70.8118 68.1914C70.6998 67.8482 70.729 67.4746 70.893 67.1528C71.057 66.8311 71.3423 66.5876 71.6862 66.4758C72.0301 66.364 72.4045 66.3932 72.7268 66.5569L78.4035 69.4459L84.598 66.3703C84.9223 66.2104 85.2969 66.1856 85.6394 66.3014C85.982 66.4172 86.2645 66.664 86.4247 66.9876C86.5849 67.3112 86.6097 67.6851 86.4938 68.027C86.3778 68.3689 86.1305 68.6508 85.8062 68.8107L78.3891 72.4417Z" fill="#FFD2D2"/>
<path d="M74.349 80.3447C72.9492 80.3746 71.5869 79.892 70.5191 78.9881C70.2454 78.7543 70.0759 78.4216 70.048 78.0632C70.0201 77.7047 70.1359 77.3498 70.3702 77.0767C70.6044 76.8035 70.9378 76.6344 71.2969 76.6065C71.6561 76.5786 72.0116 76.6943 72.2854 76.928C72.8683 77.3953 73.6031 77.6319 74.3497 77.5929C74.7014 77.6349 75.0581 77.5997 75.3948 77.4898C75.7315 77.3799 76.0401 77.1979 76.2989 76.9565C76.5577 76.7151 76.7605 76.4202 76.8932 76.0923C77.0259 75.7645 77.0851 75.4117 77.0669 75.0587L77.068 70.8834C77.0681 70.5239 77.2113 70.1791 77.4661 69.925C77.7209 69.6708 78.0664 69.5281 78.4267 69.5282C78.7869 69.5283 79.1323 69.6712 79.387 69.9255C79.6417 70.1798 79.7846 70.5246 79.7845 70.8841L79.7834 75.0729C79.7588 75.9646 79.5359 76.8397 79.1308 77.6348C78.6824 78.5003 77.9917 79.2171 77.1429 79.6981C76.294 80.1792 75.3234 80.4038 74.349 80.3447Z" fill="#FFD2D2"/>
<path d="M82.7376 80.3428C82.0185 80.379 81.2993 80.2722 80.6218 80.0285C79.9444 79.7849 79.3223 79.4092 78.7916 78.9234C78.2609 78.4377 77.8322 77.8515 77.5306 77.1989C77.2289 76.5463 77.0602 75.8404 77.0344 75.1222C77.0345 74.7627 77.1777 74.4179 77.4325 74.1638C77.6873 73.9096 78.0328 73.7669 78.393 73.767C78.7532 73.7671 79.0987 73.91 79.3533 74.1643C79.608 74.4186 79.751 74.7634 79.7509 75.1229C79.7548 75.495 79.8383 75.862 79.9956 76.1994C80.153 76.5367 80.3807 76.8367 80.6634 77.0793C80.9462 77.3218 81.2775 77.5014 81.6353 77.606C81.9931 77.7106 82.3692 77.7378 82.7383 77.6859C83.4841 77.737 84.2217 77.5048 84.8031 77.0357C84.936 76.9165 85.0911 76.8246 85.2597 76.7652C85.4282 76.7058 85.6068 76.6801 85.7852 76.6896C85.9637 76.699 86.1385 76.7435 86.2998 76.8205C86.461 76.8974 86.6055 77.0053 86.725 77.1379C86.8444 77.2706 86.9365 77.4254 86.9961 77.5936C87.0556 77.7618 87.0813 77.94 87.0718 78.1181C87.0623 78.2963 87.0177 78.4707 86.9406 78.6317C86.8636 78.7926 86.7555 78.9368 86.6226 79.056C85.5375 79.9604 84.1491 80.4203 82.7376 80.3428Z" fill="#FFD2D2"/>
</svg>
