<svg width="59" height="46" viewBox="0 0 59 46" fill="none" xmlns="http://www.w3.org/2000/svg">
<path d="M0 12.3164C0 8.79745 1.16507 5.66693 3.4839 3.51898C5.80272 1.1768 8.70974 0 12.0013 0C15.2929 0 18.1887 1.1768 20.5075 3.51898C22.8263 5.66693 24.1837 9.38014 24.1837 13.676C24.1837 21.2967 22.0571 28.3347 18.1887 34.1958C14.422 39.5314 8.99253 43.7473 1.91162 45.9524C1.57228 46.0552 1.199 45.9753 0.92753 45.7468C0.441142 45.324 0.463765 44.5814 0.938842 44.1586C7.1714 38.7431 10.6892 32.3792 11.5036 25.524C11.5715 24.9642 11.153 24.4386 10.5987 24.3815C8.04237 24.1416 5.54256 22.9876 3.4839 20.9082C1.16507 18.7603 0 15.6298 0 12.3164ZM34.8163 12.3164C34.8163 8.79745 36.1737 5.66693 38.4925 3.51898C40.8114 1.1768 43.7184 0 46.9987 0C50.098 0 53.186 1.1768 55.5161 3.51898C57.6426 5.66693 59 9.38014 59 13.676C59 21.2738 57.0771 28.3004 53.2199 34.1501C53.1973 34.1844 53.186 34.2072 53.1633 34.2301C49.2044 39.5543 43.7749 43.7588 36.875 45.9524C36.5583 46.0552 36.2076 45.9867 35.9362 45.7925L35.857 45.7239C35.3253 45.324 35.314 44.5357 35.8117 44.1015C42.0217 38.6974 45.6752 32.3678 46.5123 25.524C46.5801 24.9528 46.1616 24.4272 45.5961 24.3815C42.9266 24.153 40.5512 22.9876 38.4925 20.9082C36.1737 18.7603 34.8163 15.6298 34.8163 12.3164Z" fill="#F0F0D1"/>
</svg>
